<?xml version="1.0" standalone="no"?>
<!DOCTYPE svg PUBLIC "-//W3C//DTD SVG 20010904//EN"
 "http://www.w3.org/TR/2001/REC-SVG-20010904/DTD/svg10.dtd">
<svg version="1.0" xmlns="http://www.w3.org/2000/svg"
 width="260.000000pt" height="260.000000pt" viewBox="0 0 260.000000 260.000000"
 preserveAspectRatio="xMidYMid meet">
<metadata>
Created by potrace 1.14, written by Peter Selinger 2001-2017
</metadata>
<g transform="translate(0.000000,260.000000) scale(0.100000,-0.100000)"
fill="#000000" stroke="none">
<path d="M2395 2379 c-5 -15 -2 -26 9 -34 20 -15 21 -35 2 -35 -8 0 -21 -3
-30 -6 -11 -4 -15 1 -13 21 3 35 -24 55 -47 36 -20 -17 -21 -50 -1 -57 24 -9
18 -21 -16 -33 -18 -6 -32 -11 -33 -11 -1 0 -1 15 -1 33 0 27 -4 32 -24 32
-36 0 -50 -29 -26 -54 21 -24 20 -27 -19 -37 -25 -6 -28 -4 -23 10 10 26 -3
46 -29 46 -31 0 -41 -24 -24 -56 15 -27 14 -29 -21 -37 -24 -6 -26 -4 -21 19
8 43 -38 61 -58 23 -9 -17 -8 -25 7 -41 13 -15 15 -22 5 -25 -23 -8 -43 -35
-49 -65 -4 -22 -43 -62 -157 -161 -236 -207 -635 -547 -641 -547 -3 0 -5 33
-5 73 0 133 -68 213 -188 224 -56 5 -69 2 -128 -27 -74 -36 -107 -75 -159
-188 -66 -141 -85 -156 -269 -196 -65 -14 -143 -37 -172 -50 -72 -33 -148
-106 -181 -175 -25 -50 -28 -66 -28 -161 0 -93 4 -112 28 -164 42 -90 108
-176 244 -317 l125 -129 -100 0 c-78 0 -104 -4 -116 -16 -19 -18 -20 -28 -6
-55 10 -18 27 -19 548 -19 567 0 562 0 562 45 0 42 -14 45 -223 45 l-200 0 46
40 c58 51 122 147 181 272 50 106 73 127 161 149 171 42 284 149 272 257 -9
83 -99 131 -170 91 -81 -48 -97 -53 -124 -43 -14 5 -28 14 -30 20 -3 10 224
225 708 672 197 181 198 182 244 182 77 0 89 10 157 133 l43 77 48 0 c40 0 54
5 78 29 33 33 37 67 14 111 -16 32 -43 50 -72 50 -14 0 -18 8 -18 33 0 27 -4
32 -27 35 -20 2 -28 -2 -33 -19z m35 -140 c0 -25 -33 -22 -38 4 -2 12 3 17 17
17 15 0 21 -6 21 -21z m-102 -32 c2 -12 -3 -17 -17 -17 -12 0 -21 6 -21 13 0
31 32 34 38 4z m-102 -28 c10 -17 -13 -36 -27 -22 -12 12 -4 33 11 33 5 0 12
-5 16 -11z m-98 -46 c-2 -10 -10 -18 -18 -18 -8 0 -16 8 -18 18 -2 12 3 17 18
17 15 0 20 -5 18 -17z m-99 -164 l24 -30 -29 -30 -29 -30 -28 31 -29 32 28 29
c15 16 30 29 33 28 3 0 17 -14 30 -30z m-89 -139 c0 -4 -14 -17 -31 -29 l-31
-23 -31 31 -31 31 34 30 35 29 28 -31 c15 -18 27 -35 27 -38z m-131 -126 c-29
-31 -34 -30 -68 9 l-30 32 27 28 27 28 33 -36 34 -37 -23 -24z m-122 -26 c33
-38 36 -48 17 -69 -23 -26 -29 -24 -60 16 -26 34 -26 36 -9 55 23 25 27 25 52
-2z m-91 -95 l32 -38 -20 -22 -20 -21 -35 39 c-35 38 -35 40 -18 59 10 11 20
20 23 20 3 0 20 -17 38 -37z m-96 -75 c34 -38 36 -50 14 -69 -15 -12 -21 -9
-50 25 -32 37 -33 40 -17 58 9 10 18 18 20 18 2 0 17 -15 33 -32z m-81 -89
c31 -38 32 -42 17 -57 -15 -16 -19 -14 -55 28 -28 33 -36 48 -29 58 17 20 31
14 67 -29z m-49 -115 c0 -32 -26 -25 -62 16 -30 34 -36 46 -26 57 9 12 18 8
50 -24 21 -20 38 -43 38 -49z m-295 51 c0 -11 7 -20 15 -20 8 0 14 8 14 17 -1
11 4 14 14 11 11 -5 -2 -22 -47 -66 -33 -32 -61 -62 -61 -66 0 -4 35 -45 78
-91 44 -47 84 -95 91 -107 15 -29 59 -52 113 -59 36 -5 53 0 102 25 71 38 94
39 102 7 15 -63 -68 -130 -219 -177 -115 -35 -160 -73 -197 -164 -26 -64 -46
-67 -42 -8 5 70 -46 111 -101 82 -18 -10 -25 -8 -49 22 -15 18 -28 43 -28 56
0 32 -174 213 -206 213 -14 0 -31 12 -45 32 l-23 32 93 88 c52 49 106 98 121
108 28 20 28 20 23 0 -4 -14 0 -20 10 -20 20 0 31 16 17 25 -20 12 -9 26 35
46 53 24 118 38 160 36 23 -2 30 -7 30 -22z m188 -77 c27 -32 33 -46 25 -56
-14 -17 -17 -15 -62 35 -36 41 -40 63 -11 63 7 0 29 -19 48 -42z m-52 -122
c-20 -23 -26 -20 -67 29 -31 38 -34 47 -23 61 11 13 18 10 57 -30 39 -38 44
-47 33 -60z m-546 -238 c28 -29 68 -72 89 -95 l38 -41 -47 -51 c-26 -28 -56
-51 -65 -51 -17 0 -180 168 -180 186 0 8 101 103 110 104 3 0 28 -24 55 -52z
m322 -234 c8 -21 -13 -42 -28 -27 -13 13 -5 43 11 43 6 0 13 -7 17 -16z m-71
-79 c24 -36 6 -75 -34 -75 -35 0 -52 16 -52 52 0 49 59 65 86 23z m-130 -120
c30 -46 -17 -101 -65 -76 -30 17 -32 66 -3 89 25 19 50 14 68 -13z"/>
<path d="M902 1204 c-12 -8 -22 -22 -22 -31 0 -21 159 -193 179 -193 23 0 41
20 41 45 0 17 -155 195 -170 195 -3 0 -16 -7 -28 -16z"/>
<path d="M624 1119 c-10 -17 13 -36 27 -22 12 12 4 33 -11 33 -5 0 -12 -5 -16
-11z"/>
<path d="M1444 999 c-3 -6 -2 -15 4 -21 13 -13 32 -2 32 18 0 16 -26 19 -36 3z"/>
</g>
</svg>
